<svg width="276" height="58" viewBox="0 0 276 58" fill="none" xmlns="http://www.w3.org/2000/svg">
<g filter="url(#filter0_ii_12_32659)">
<rect width="95" height="50" rx="8" fill="url(#paint0_linear_12_32659)"/>
<path d="M26.0573 23.88H29.8373V26.02H26.0573V29.78H23.9173V26.02H20.1373V23.88H23.9173V20.08H26.0573V23.88Z" fill="white"/>
<path d="M49.9152 21.76H46.7752V20.18C48.6352 20.06 49.7552 19.54 50.2952 17.9H52.2952V32H49.9152V21.76Z" fill="white"/>
<path d="M69.8773 27.86V25.42H75.1173V27.86H69.8773Z" fill="white"/>
</g>
<g filter="url(#filter1_d_12_32659)">
<rect x="108" width="159" height="50" rx="8" fill="url(#paint1_linear_12_32659)" shape-rendering="crispEdges"/>
<rect x="108.5" y="0.5" width="158" height="49" rx="7.5" stroke="url(#paint2_linear_12_32659)" shape-rendering="crispEdges"/>
<path d="M133.704 32L139.224 17.9H141.124L146.664 32H144.824L143.384 28.2H136.964L135.544 32H133.704ZM137.484 26.68H142.864L140.164 19.76L137.484 26.68ZM152.548 32.2C150.088 32.2 148.048 30.22 148.048 27.02C148.048 23.86 150.048 21.88 152.528 21.88C154.328 21.88 155.528 22.98 156.008 24.1V18.5H157.608V30.54L157.828 32H156.168L156.008 30.82V30.04C155.548 31.14 154.328 32.2 152.548 32.2ZM149.688 27.02C149.688 29.36 151.188 30.78 152.968 30.78C154.848 30.78 156.008 29.2 156.008 28.44V25.72C156.008 24.98 154.908 23.3 152.988 23.3C151.208 23.3 149.688 24.64 149.688 27.02ZM164.677 32.2C162.217 32.2 160.177 30.22 160.177 27.02C160.177 23.86 162.177 21.88 164.657 21.88C166.457 21.88 167.657 22.98 168.137 24.1V18.5H169.737V30.54L169.957 32H168.297L168.137 30.82V30.04C167.677 31.14 166.457 32.2 164.677 32.2ZM161.817 27.02C161.817 29.36 163.317 30.78 165.097 30.78C166.977 30.78 168.137 29.2 168.137 28.44V25.72C168.137 24.98 167.037 23.3 165.117 23.3C163.337 23.3 161.817 24.64 161.817 27.02ZM179.228 19.76H180.848V22H183.428V23.38H180.848V29.6C180.848 30.18 181.028 30.58 181.828 30.58H183.448V32H181.548C180.328 32 179.228 31.5 179.228 29.7V23.38H177.648V22H179.228V19.76ZM190.018 32.24C187.058 32.24 184.978 30.08 184.978 27.02C184.978 23.92 187.058 21.76 190.018 21.76C192.978 21.76 195.038 23.92 195.038 27.02C195.038 30.08 192.978 32.24 190.018 32.24ZM186.638 27.02C186.638 29.28 187.998 30.8 190.018 30.8C192.038 30.8 193.418 29.28 193.418 27.02C193.418 24.74 192.038 23.22 190.018 23.22C187.998 23.22 186.638 24.74 186.638 27.02ZM206.797 32.24C203.877 32.24 201.857 30.1 201.857 27C201.857 23.9 203.877 21.76 206.797 21.76C209.157 21.76 210.937 23.18 211.137 25.24H209.577C209.337 23.96 208.277 23.18 206.817 23.18C204.777 23.18 203.517 24.66 203.517 27.02C203.517 29.36 204.797 30.82 206.837 30.82C208.337 30.82 209.417 29.96 209.617 28.56H211.177C210.977 30.74 209.177 32.24 206.797 32.24ZM216.331 32.22C214.471 32.22 213.031 31.18 213.031 29.34C213.031 27.64 214.271 26.9 215.991 26.58L219.571 25.92V25.02C219.571 23.92 218.691 23.14 217.311 23.14C215.811 23.14 215.011 23.86 214.911 25H213.291C213.431 22.86 214.991 21.78 217.311 21.78C219.731 21.78 221.151 23.14 221.151 24.98V30.68L221.511 32H219.811L219.571 30.86V30.14C219.171 31.26 218.091 32.22 216.331 32.22ZM214.691 29.24C214.691 30.14 215.271 30.88 216.691 30.88C218.351 30.88 219.571 29.76 219.571 28.78V26.86L218.871 27.24L216.531 27.7C215.491 27.9 214.691 28.26 214.691 29.24ZM224.16 32V23.36L223.92 22H225.6L225.76 22.92V24.46C225.98 23.1 226.92 22 228.52 22H229.16V23.6H228.26C226.82 23.6 225.76 24.68 225.76 25.58V32H224.16ZM235.087 32.2C232.627 32.2 230.587 30.22 230.587 27.02C230.587 23.86 232.587 21.88 235.067 21.88C236.867 21.88 238.067 22.98 238.547 24.1V18.5H240.147V30.54L240.367 32H238.707L238.547 30.82V30.04C238.087 31.14 236.867 32.2 235.087 32.2ZM232.227 27.02C232.227 29.36 233.727 30.78 235.507 30.78C237.387 30.78 238.547 29.2 238.547 28.44V25.72C238.547 24.98 237.447 23.3 235.527 23.3C233.747 23.3 232.227 24.64 232.227 27.02Z" fill="white"/>
</g>
<defs>
<filter id="filter0_ii_12_32659" x="-4" y="-4" width="103" height="58" filterUnits="userSpaceOnUse" color-interpolation-filters="sRGB">
<feFlood flood-opacity="0" result="BackgroundImageFix"/>
<feBlend mode="normal" in="SourceGraphic" in2="BackgroundImageFix" result="shape"/>
<feColorMatrix in="SourceAlpha" type="matrix" values="0 0 0 0 0 0 0 0 0 0 0 0 0 0 0 0 0 0 127 0" result="hardAlpha"/>
<feOffset dx="5" dy="4"/>
<feGaussianBlur stdDeviation="2"/>
<feComposite in2="hardAlpha" operator="arithmetic" k2="-1" k3="1"/>
<feColorMatrix type="matrix" values="0 0 0 0 0 0 0 0 0 0 0 0 0 0 0 0 0 0 0.25 0"/>
<feBlend mode="normal" in2="shape" result="effect1_innerShadow_12_32659"/>
<feColorMatrix in="SourceAlpha" type="matrix" values="0 0 0 0 0 0 0 0 0 0 0 0 0 0 0 0 0 0 127 0" result="hardAlpha"/>
<feOffset dx="-4" dy="-5"/>
<feGaussianBlur stdDeviation="2"/>
<feComposite in2="hardAlpha" operator="arithmetic" k2="-1" k3="1"/>
<feColorMatrix type="matrix" values="0 0 0 0 0 0 0 0 0 0 0 0 0 0 0 0 0 0 0.35 0"/>
<feBlend mode="normal" in2="effect1_innerShadow_12_32659" result="effect2_innerShadow_12_32659"/>
</filter>
<filter id="filter1_d_12_32659" x="108" y="0" width="168" height="58" filterUnits="userSpaceOnUse" color-interpolation-filters="sRGB">
<feFlood flood-opacity="0" result="BackgroundImageFix"/>
<feColorMatrix in="SourceAlpha" type="matrix" values="0 0 0 0 0 0 0 0 0 0 0 0 0 0 0 0 0 0 127 0" result="hardAlpha"/>
<feOffset dx="5" dy="4"/>
<feGaussianBlur stdDeviation="2"/>
<feComposite in2="hardAlpha" operator="out"/>
<feColorMatrix type="matrix" values="0 0 0 0 0 0 0 0 0 0 0 0 0 0 0 0 0 0 0.25 0"/>
<feBlend mode="normal" in2="BackgroundImageFix" result="effect1_dropShadow_12_32659"/>
<feBlend mode="normal" in="SourceGraphic" in2="effect1_dropShadow_12_32659" result="shape"/>
</filter>
<linearGradient id="paint0_linear_12_32659" x1="-1.49371" y1="33.5" x2="96.7806" y2="23.5017" gradientUnits="userSpaceOnUse">
<stop stop-color="#101828"/>
<stop offset="1" stop-color="#233250"/>
</linearGradient>
<linearGradient id="paint1_linear_12_32659" x1="105.5" y1="33.5" x2="267" y2="6" gradientUnits="userSpaceOnUse">
<stop stop-color="#101828"/>
<stop offset="1" stop-color="#233250"/>
</linearGradient>
<linearGradient id="paint2_linear_12_32659" x1="103" y1="35" x2="267" y2="25" gradientUnits="userSpaceOnUse">
<stop stop-color="#243961"/>
<stop offset="1" stop-color="#101828"/>
</linearGradient>
</defs>
</svg>
